:version 1.10
:name ASF
:units
  mass 1
  length 1
  angle deg
:documentation
  ASF file generated by Kaydara
:root
  axis xyz
  order  tx ty tz rx ry rz
  position 0 0 0
  orientation 0 0 0
:bonedata
  begin
    id 1
    name RightUpLegDummy
    direction -1 2.30186e-007 8.31532e-007
    length 4.46685
    axis 0 0 0 xyz
  end
  begin
    id 2
    name RightUpLeg
    direction -2.30187e-007 -1 1.24343e-010
    length 16.4045
    axis -3.49089 -0.000906625 0.000286804 xyz
    dof rx ry rz
  end
  begin
    id 3
    name RightLeg
    direction -2.30181e-007 -1 -4.17157e-009
    length 17.5097
    axis 3.68512 0.0193738 -0.131023 xyz
    dof rx ry rz
  end
  begin
    id 4
    name RightFoot
    direction 8.31421e-007 -4.51202e-011 1
    length 6.49508
    axis 4.81691e-005 -0.120479 -0.188788 xyz
    dof rx ry rz
  end
  begin
    id 5
    name RightToes
    direction 0.00124746 -0.014064 0.9999
    length 3.85082
    axis 0.000481921 0.542163 -0.142578 xyz
    dof rx ry rz
  end
  begin
    id 6
    name SpineDummy
    direction 0.0717043 0.9409 -0.331007
    length 10.0032
    axis 0 0 0 xyz
  end
  begin
    id 7
    name Spine
    direction 2.30186e-007 1 4.58806e-011
    length 9.84055
    axis -0.001389 0.000121418 2.40972e-006 xyz
    dof rx ry rz
  end
  begin
    id 8
    name Spine1
    direction 0 0 0
    length 0
    axis -0.001389 0.000121451 1.30017e-006 xyz
    dof rx ry rz
  end
  begin
    id 9
    name HEadDummy
    direction -0.00347485 0.950688 -0.310128
    length 8.00997
    axis -0.001389 0.000121451 1.30017e-006 xyz
  end
  begin
    id 10
    name HEad
    direction -0.0222688 0.980941 0.193023
    length 5.12695
    axis -0.001389 0.000121451 1.30017e-006 xyz
    dof rx ry rz
  end
  begin
    id 11
    name LeftShoulder1Dummy
    direction 0.988871 0.146793 -0.0242004
    length 3.5792
    axis -0.001389 0.000121451 1.30017e-006 xyz
  end
  begin
    id 12
    name LeftShoulder1
    direction 0.993832 0.108932 0.020779
    length 4.16823
    axis -0.001389 0.000121451 1.30017e-006 xyz
    dof rx ry rz
  end
  begin
    id 13
    name LeftArm
    direction 1 3.44807e-006 -8.31404e-007
    length 9.91437
    axis -23.1894 0.134784 0.967509 xyz
    dof rx ry rz
  end
  begin
    id 14
    name LeftForeArm
    direction 1 3.44842e-006 -8.31581e-007
    length 9.08575
    axis -9.91835 -0.06569 -0.177793 xyz
    dof rx ry rz
  end
  begin
    id 15
    name LeftHand
    direction 0.992938 -0.0411636 0.11126
    length 5.32135
    axis -0.00960232 -0.00340091 0.185173 xyz
    dof rx ry rz
  end
  begin
    id 16
    name RightShoulderDummy
    direction -0.988871 0.146793 -0.0241962
    length 3.5792
    axis -0.001389 0.000121451 1.30017e-006 xyz
  end
  begin
    id 17
    name RightShoulder
    direction -0.993832 0.108933 0.0207785
    length 4.16823
    axis 0.215806 0.000203643 -0.0068026 xyz
    dof rx ry rz
  end
  begin
    id 18
    name RightArm
    direction -1 3.90912e-006 8.31284e-007
    length 9.91437
    axis -23.2009 -0.134239 -0.964101 xyz
    dof rx ry rz
  end
  begin
    id 19
    name RightForeArm
    direction -1 3.90882e-006 8.31502e-007
    length 9.08575
    axis -9.92322 0.0658061 0.178867 xyz
    dof rx ry rz
  end
  begin
    id 20
    name RightHand
    direction -0.992843 -0.0414603 0.112003
    length 5.28593
    axis -0.00960638 0.00330671 -0.185228 xyz
    dof rx ry rz
  end
  begin
    id 21
    name LeftUpLegDummy
    direction 1 -2.30186e-007 -8.31532e-007
    length 4.46685
    axis 0 0 0 xyz
  end
  begin
    id 22
    name LeftUpLeg
    direction -2.30187e-007 -1 6.00931e-010
    length 16.4045
    axis -3.48766 0.00143442 -0.000524262 xyz
    dof rx ry rz
  end
  begin
    id 23
    name LeftLeg
    direction -2.30187e-007 -1 1.6669e-009
    length 17.5097
    axis 3.68178 -0.00654042 -0.000285133 xyz
    dof rx ry rz
  end
  begin
    id 24
    name LeftFoot
    direction 8.31532e-007 -4.54478e-011 1
    length 6.49508
    axis 1.87233e-006 4.66016e-005 -8.6538e-006 xyz
    dof rx ry rz
  end
  begin
    id 25
    name LeftToes
    direction 0.00818058 -0.00485161 0.999955
    length 3.85048
    axis 1.06247e-005 4.65869e-005 -8.65513e-006 xyz
    dof rx ry rz
  end
:hierarchy
  begin
    root RightUpLegDummy SpineDummy LeftUpLegDummy
    RightUpLegDummy RightUpLeg
    RightUpLeg RightLeg
    RightLeg RightFoot
    RightFoot RightToes
    SpineDummy Spine
    Spine Spine1
    Spine1 HEadDummy LeftShoulder1Dummy RightShoulderDummy
    HEadDummy HEad
    LeftShoulder1Dummy LeftShoulder1
    LeftShoulder1 LeftArm
    LeftArm LeftForeArm
    LeftForeArm LeftHand
    RightShoulderDummy RightShoulder
    RightShoulder RightArm
    RightArm RightForeArm
    RightForeArm RightHand
    LeftUpLegDummy LeftUpLeg
    LeftUpLeg LeftLeg
    LeftLeg LeftFoot
    LeftFoot LeftToes
  end

:SAMPLES-PER-SECOND 30
:FULLY-SPECIFIED
:DEGREES
65
root  47.4179 25.902 10.528 22.5634 40.0879 3.81159
RightUpLeg  -64.7169 -21.4443 2.95692
RightLeg  99.264 0.578712 -4.54624
RightFoot  -20.542 0.405952 2.61762
RightToes  -33.0141 -0.165218 -0.27236
Spine  21.9582 1.16956 -2.67268
Spine1  33.2253 5.28976 -2.6661
HEad  16.4124 -16.0079 18.4866
LeftShoulder1  0 -2.42657e-020 -4.95415e-022
LeftArm  -13.1456 -50.8205 -91.5607
LeftForeArm  -159.36 -19.5051 -3.16571
LeftHand  12.2391 -28.8972 -45.5638
RightShoulder  0 2.42657e-020 1.07489e-018
RightArm  -65.0598 63.3211 51.8813
RightForeArm  68.3138 -0.195837 -0.0868565
RightHand  1.70171 13.1418 15.0706
LeftUpLeg  -71.539 -11.7245 12.2735
LeftLeg  77.0172 -5.46412 -17.6681
LeftFoot  -14.3019 0.524366 4.17772
LeftToes  -51.5416 1.18758e-006 1.19596e-007
66
root  48.0615 26.8801 12.8228 21.1514 42.0293 2.69333
RightUpLeg  -69.731 -18.7778 2.82466
RightLeg  89.2875 -0.411765 -6.75509
RightFoot  -21.2076 0.525967 3.18656
RightToes  -26.3661 -0.119715 -0.225933
Spine  21.6909 1.17793 -2.74366
Spine1  33.0033 4.00811 -3.29316
HEad  18.9031 -14.5371 19.9527
LeftShoulder1  0 -2.42657e-020 -4.95415e-022
LeftArm  -13.666 -51.3969 -88.8685
LeftForeArm  -159.741 -20.7952 -3.42047
LeftHand  11.6578 -27.8796 -45.0924
RightShoulder  0 2.42657e-020 1.07489e-018
RightArm  -66.615 63.1519 68.5908
RightForeArm  86.4375 0.248975 -0.0603252
RightHand  1.56666 15.3032 11.9971
LeftUpLeg  -64.3942 -13.4713 14.1366
LeftLeg  73.1816 -6.54253 -16.966
LeftFoot  -17.1826 0.738393 4.88452
LeftToes  -51.406 1.18758e-006 1.19596e-007
67
root  48.7193 27.7711 15.1458 20.2877 44.0165 2.3947
RightUpLeg  -71.9029 -17.0513 0.979562
RightLeg  76.7704 -1.57728 -5.4505
RightFoot  -19.5753 0.365734 2.4975
RightToes  -27.7353 -0.128641 -0.235922
Spine  20.5559 0.885679 -2.79123
Spine1  31.659 2.05899 -3.69551
HEad  21.2723 -14.0881 20.8931
LeftShoulder1  0 -2.42657e-020 -4.95415e-022
LeftArm  -16.9542 -49.7015 -84.525
LeftForeArm  -162.511 -22.5502 -3.77448
LeftHand  11.3092 -29.2446 -41.943
RightShoulder  0 2.42657e-020 1.07489e-018
RightArm  -37.0076 53.8738 81.6566
RightForeArm  71.6941 12.5439 2.17329
RightHand  1.87372 20.3711 10.7744
LeftUpLeg  -57.1983 -15.4173 15.0273
LeftLeg  68.6805 -7.27783 -15.2121
LeftFoot  -19.2149 0.854721 5.04624
LeftToes  -49.8417 1.18758e-006 1.19596e-007
68
root  49.3968 28.5854 17.5041 20.0085 46.7291 2.7062
RightUpLeg  -71.6966 -17.2176 -0.985918
RightLeg  62.1983 -1.98645 -3.33931
RightFoot  -18.2618 0.230164 1.80956
RightToes  -31.0462 -0.151191 -0.259171
Spine  18.5985 0.204572 -3.03268
Spine1  29.2647 -0.951261 -3.3168
HEad  23.3938 -15.1531 21.8863
LeftShoulder1  0 -2.42657e-020 -4.95415e-022
LeftArm  -19.0747 -46.3551 -79.5171
LeftForeArm  -161.692 -24.2064 -4.11637
LeftHand  10.4087 -29.9615 -37.9732
RightShoulder  0 2.42657e-020 1.07489e-018
RightArm  -15.454 42.3499 83.8788
RightForeArm  56.3444 23.934 4.4455
RightHand  1.64619 20.9871 9.24325
LeftUpLeg  -50.3496 -17.0006 15.3958
LeftLeg  63.687 -8.01104 -13.5852
LeftFoot  -19.8008 0.854652 4.89384
LeftToes  -48.5987 1.18758e-006 1.19596e-007
69
root  50.1856 29.2249 19.9871 19.1488 50.1618 3.58238
RightUpLeg  -68.9496 -19.5225 -2.37066
RightLeg  48.0835 -2.86665 -2.84372
RightFoot  -15.9085 0.185298 1.70371
RightToes  -32.5144 -0.161613 -0.269056
Spine  16.6313 -0.872706 -3.05057
Spine1  27.0063 -4.2096 -2.66498
HEad  25.455 -16.8389 22.5915
LeftShoulder1  0 -2.42657e-020 -4.95415e-022
LeftArm  -20.5301 -40.3974 -74.4462
LeftForeArm  -161.297 -28.174 -4.97419
LeftHand  9.45494 -31.0905 -33.4894
RightShoulder  0 2.42657e-020 1.07489e-018
RightArm  -7.64609 31.8784 84.5505
RightForeArm  49.7716 32.7662 6.48891
RightHand  1.2932 22.4166 6.89135
LeftUpLeg  -42.1491 -18.3181 15.1549
LeftLeg  57.7319 -8.94823 -12.1148
LeftFoot  -19.8864 0.839813 4.78788
LeftToes  -49.2578 1.18758e-006 1.19596e-007
70
root  51.0253 29.6494 22.5765 18.5088 53.8069 5.23768
RightUpLeg  -66.0141 -25.0614 -0.826471
RightLeg  36.6413 -4.2458 -2.76434
RightFoot  -9.99046 0.0824743 1.32121
RightToes  -36.0958 -0.18807 -0.292022
Spine  14.4168 -2.07986 -2.99179
Spine1  24.3704 -6.79142 -2.63972
HEad  28.5064 -18.8539 22.5078
LeftShoulder1  0 -2.42657e-020 -4.95415e-022
LeftArm  -20.762 -32.0992 -69.3522
LeftForeArm  -159.764 -33.6365 -6.26736
LeftHand  9.60326 -31.1269 -33.943
RightShoulder  0 2.42657e-020 1.07489e-018
RightArm  -4.27389 21.7436 85.2582
RightForeArm  45.6267 39.0545 8.21165
RightHand  0.843428 24.1778 4.30759
LeftUpLeg  -33.1668 -18.6671 14.6319
LeftLeg  50.8053 -10.074 -10.6764
LeftFoot  -19.5784 0.815907 4.7263
LeftToes  -50.3367 1.18758e-006 1.19596e-007
71
root  51.8567 29.8246 25.3072 17.4772 57.1053 6.62586
RightUpLeg  -63.633 -31.7203 3.31923
RightLeg  29.3266 -7.28229 -3.48833
RightFoot  -7.2769 0.0600623 1.3222
RightToes  -32.205 -0.159396 -0.266995
Spine  12.442 -3.08789 -3.048
Spine1  21.8965 -8.75534 -2.6024
HEad  31.6141 -21.9404 23.2729
LeftShoulder1  0 -2.42657e-020 -4.95415e-022
LeftArm  -24.6318 -24.6355 -64.3732
LeftForeArm  -165.406 -37.3493 -7.24611
LeftHand  9.65977 -32.2357 -32.9745
RightShoulder  0 2.42657e-020 1.07489e-018
RightArm  -4.00815 11.9837 85.9193
RightForeArm  44.7488 44.8664 10.1069
RightHand  1.05676 25.1312 5.10972
LeftUpLeg  -24.3939 -18.2508 15.0522
LeftLeg  44.2839 -11.5028 -9.70591
LeftFoot  -18.0473 0.726981 4.57537
LeftToes  -54.559 1.18758e-006 1.19596e-007
72
root  52.8222 29.7482 28.2082 14.3523 59.6773 7.16449
RightUpLeg  -59.3851 -36.6013 5.76067
RightLeg  27.7417 -12.5634 -5.54825
RightFoot  -7.03957 0.0955458 1.931
RightToes  -18.6394 -0.0740044 -0.165793
Spine  11.4505 -3.62701 -2.97372
Spine1  20.7263 -9.83235 -2.23428
HEad  34.1832 -25.8303 23.8632
LeftShoulder1  0 -2.42657e-020 -4.95415e-022
LeftArm  -27.6954 -19.4089 -59.5649
LeftForeArm  -166.205 -39.5071 -7.86025
LeftHand  9.46348 -33.1554 -31.4528
RightShoulder  0 2.42657e-020 1.07489e-018
RightArm  -5.70431 2.73065 86.2892
RightForeArm  43.2086 52.4373 13.2803
RightHand  1.09907 25.8857 5.15097
LeftUpLeg  -15.2386 -18.646 15.9317
LeftLeg  40.0672 -11.6471 -8.4666
LeftFoot  -15.3807 0.506472 3.74937
LeftToes  -60.0325 1.18758e-006 1.19596e-007
73
root  53.7649 29.4094 31.2907 10.2227 60.9806 6.25469
RightUpLeg  -56.339 -39.9573 8.78027
RightLeg  30.6227 -12.8057 -6.43029
RightFoot  -7.01871 0.0948793 1.92476
RightToes  1.65038 0.00388139 0.0156728
Spine  10.6199 -3.40096 -2.97949
Spine1  19.4605 -9.10913 -2.63583
HEad  37.2113 -29.3642 24.2025
LeftShoulder1  0 -2.42657e-020 -4.95415e-022
LeftArm  -24.7892 -17.009 -53.3962
LeftForeArm  -163.256 -39.7831 -7.9397
LeftHand  9.08732 -31.9398 -31.4147
RightShoulder  0 2.42657e-020 1.07489e-018
RightArm  -7.06709 -6.32205 87.1661
RightForeArm  43.1362 59.2906 17.3353
RightHand  0.729445 25.7949 3.55566
LeftUpLeg  -8.37727 -17.2126 18.0376
LeftLeg  40.1394 -10.6767 -7.79931
LeftFoot  -10.4579 0.197707 2.16006
LeftToes  -68.8839 1.18758e-006 1.19596e-007
74
root  54.4756 29.0004 34.1826 4.07715 62.2723 3.25894
RightUpLeg  -53.3745 -36.9757 4.42512
RightLeg  42.3042 -7.43747 -5.92758
RightFoot  6.5185 0.0909618 -1.21955
RightToes  -13.1162 -0.0464978 -0.119305
Spine  10.5571 -3.74015 -2.83195
Spine1  19.2106 -10.0059 -2.09617
HEad  39.8304 -32.1523 24.0652
LeftShoulder1  0 -2.42657e-020 -4.95415e-022
LeftArm  -24.6777 -16.1153 -49.0443
LeftForeArm  -163.274 -38.5043 -7.56874
LeftHand  8.82216 -32.5599 -29.9681
RightShoulder  0 2.42657e-020 1.07489e-018
RightArm  -8.02333 -10.9497 88.4183
RightForeArm  41.6101 61.4744 19.0169
RightHand  0.587748 25.8481 2.93161
LeftUpLeg  -6.60128 -16.4555 21.0879
LeftLeg  47.9792 -6.89492 -6.68806
LeftFoot  -2.0175 -0.00565588 -0.321221
LeftToes  -72.4714 1.18758e-006 1.19596e-007
75
root  54.8937 29.0042 36.8659 -3.83203 63.1076 -4.88869
RightUpLeg  -52.1207 -38.1783 9.39137
RightLeg  47.1678 -5.0135 -4.77425
RightFoot  5.55068 0.059628 -0.852329
RightToes  -8.74645 -0.0279849 -0.0807797
Spine  10.3989 -4.20843 -1.2448
Spine1  18.6739 -10.7778 0.180691
HEad  38.6013 -30.7966 22.1281
LeftShoulder1  0 -2.42657e-020 -4.95415e-022
LeftArm  -29.2779 -14.6606 -50.1147
LeftForeArm  -163.481 -37.45 -7.27292
LeftHand  9.7094 -32.7184 -32.6505
RightShoulder  0 2.42657e-020 1.07489e-018
RightArm  -6.49962 -10.6115 86.5349
RightForeArm  40.2213 60.3756 18.1433
RightHand  0.694173 25.8459 3.3955
LeftUpLeg  -11.4338 -15.8522 25.9554
LeftLeg  59.9928 -1.63491 -2.46116
LeftFoot  9.62976 0.123791 -1.46954
LeftToes  -51.4801 1.18758e-006 1.19596e-007
76
root  55.1874 29.129 38.8906 -5.88342 62.5092 -6.18649
RightUpLeg  -49.56 -36.9846 10.3942
RightLeg  50.2238 -5.07486 -5.37723
RightFoot  -0.105107 -0.000425058 -0.0864291
RightToes  -5.52578 -0.0162484 -0.0515412
Spine  10.8715 -5.11829 -1.33017
Spine1  19.572 -12.4297 -0.543472
HEad  39.0185 -27.6133 22.9119
LeftShoulder1  0 -2.42657e-020 -4.95415e-022
LeftArm  -37.3138 -11.5336 -52.9622
LeftForeArm  -164.052 -35.8861 -6.84941
LeftHand  11.8326 -31.2798 -41.0022
RightShoulder  0 2.42657e-020 1.07489e-018
RightArm  -3.14283 -5.97087 86.845
RightForeArm  39.1035 54.1856 14.1836
RightHand  0.548583 25.9642 2.7499
LeftUpLeg  -17.7038 -19.5975 23.6322
LeftLeg  73.3372 -3.22644 -8.64939
LeftFoot  13.0832 0.365714 -3.18843
LeftToes  -42.6267 1.18758e-006 1.19596e-007
77
root  55.3362 29.3944 40.4055 -7.24585 58.56 -8.02776
RightUpLeg  -46.9804 -31.8296 12.2722
RightLeg  50.229 -5.3035 -5.61615
RightFoot  -1.97805 -0.00306196 0.200252
RightToes  -3.87624 -0.0108785 -0.0363228
Spine  11.5685 -4.90817 -1.39702
Spine1  20.8855 -11.429 -2.05224
HEad  40.5932 -22.59 24.2134
LeftShoulder1  0 -2.42657e-020 -4.95415e-022
LeftArm  -49.0207 -10.7643 -57.4517
LeftForeArm  -168.003 -32.8004 -6.0628
LeftHand  13.3948 -25.9383 -54.4141
RightShoulder  0 2.42657e-020 1.07489e-018
RightArm  -0.0914572 0.549025 88.2712
RightForeArm  39.3905 44.9017 10.1274
RightHand  -0.0283223 26.685 0.250651
LeftUpLeg  -23.5042 -21.5119 19.6501
LeftLeg  83.7717 -3.06574 -17.0579
LeftFoot  6.85601 0.18288 -3.05231
LeftToes  -45.0311 1.18758e-006 1.19596e-007
78
root  55.1099 29.5689 41.659 -6.5802 52.5303 -9.26226
RightUpLeg  -46.2556 -26.8077 16.2477
RightLeg  48.7378 -4.12251 -4.16059
RightFoot  -2.68158 -0.00529738 0.151258
RightToes  -1.09083 -0.00281253 -0.0102949
Spine  12.2975 -3.85944 -1.52771
Spine1  21.9804 -8.97803 -3.08895
HEad  39.4929 -16.2204 25.9184
LeftShoulder1  0 -2.42657e-020 -4.95415e-022
LeftArm  -56.3699 -12.8185 -59.002
LeftForeArm  -168.215 -26.7426 -4.66065
LeftHand  12.7973 -25.3473 -53.3918
RightShoulder  0 2.42657e-020 1.07489e-018
RightArm  -0.210069 5.42655 89.9655
RightForeArm  40.0176 40.7272 8.72926
RightHand  -0.196411 26.7101 -0.457405
LeftUpLeg  -30.9488 -19.8513 16.7519
LeftLeg  90.1546 -0.791966 -12.7477
LeftFoot  6.44888 0.125913 -2.23474
LeftToes  -46.1462 1.18758e-006 1.19596e-007
79
root  54.7171 29.6846 42.6408 -3.48279 46.4464 -8.01099
RightUpLeg  -45.7777 -22.5894 19.1234
RightLeg  46.4672 -2.54353 -2.38775
RightFoot  -3.85168 -0.0111556 0.0457912
RightToes  2.85792 0.00643447 0.0272076
Spine  13.3924 -2.71799 -2.30645
Spine1  23.6095 -6.48525 -4.45874
HEad  37.2051 -9.9471 26.9212
LeftShoulder1  0 -2.42657e-020 -4.95415e-022
LeftArm  -54.5251 -16.2289 -57.2719
LeftForeArm  -168.964 -18.911 -3.0527
LeftHand  12.5982 -28.5237 -47.3268
RightShoulder  0 2.42657e-020 1.07489e-018
RightArm  -2.29988 9.71955 91.3206
RightForeArm  39.5042 39.2678 8.28412
RightHand  -0.0191059 26.3672 0.288516
LeftUpLeg  -39.7879 -18.4056 14.1259
LeftLeg  92.552 -0.134063 -7.11193
LeftFoot  3.91163 0.0361458 -1.05846
LeftToes  -39.374 1.18758e-006 1.19596e-007
